Coordinates
version=1
nRows=16
nColumns=33
inDegrees=yes

Units are S.I. units (second, meters, Newtons, ...)
Angles are in degrees.

endheader
time	ground_thorax_rot_x	ground_thorax_rot_y	ground_thorax_rot_z	ground_thorax_tx	ground_thorax_ty	ground_thorax_tz	clav_prot_r	clav_elev_r	scapula_abduction_r	scapula_elevation_r	scapula_upward_rot_r	scapula_winging_r	shoulder_elv_r	plane_of_elev_r	axial_rot_r	elbow_flexion_r	pro_sup_r	wrist_flex_r	wrist_dev_r	clav_prot_l	clav_elev_l	scapula_abduction_l	scapula_elevation_l	scapula_upward_rot_l	scapula_winging_l	shoulder_elv_l	plane_of_elev_l	axial_rot_l	elbow_flexion_l	pro_sup_l	wrist_flex_l	wrist_dev_l
      2.64000000	      1.73333376	      6.61179563	     -0.09743179	     -0.18367731	      1.00214491	      0.01404556	    -17.55866859	     -7.71859493	    -21.07596805	     -4.68925415	     11.21651351	      1.27739037	     62.59975253	    -54.13480942	     61.68922637	     79.13107248	     29.42575386	     35.34143842	    -21.84018675	     -4.14632124	     -1.68514417	      4.37437428	     -5.19134560	     -2.09695966	     -0.85538878	     46.48498154	    -48.02511299	    -23.06620340	     78.19054804	     22.90367618	    -17.43601664	    -24.99999983
      2.65000000	      1.73389520	      6.61190230	     -0.09444771	     -0.18360741	      1.00191779	      0.01403867	    -17.55874505	     -7.72053660	    -21.07637959	     -4.69082277	     11.21532595	      1.27708929	     62.59818763	    -54.13452297	     61.68964364	     79.13162806	     29.42547238	     35.34200140	    -21.84069995	     -4.14598397	     -1.68573295	      4.37379569	     -5.18981372	     -2.09805051	     -0.85626520	     46.48315812	    -48.02431995	    -23.06663837	     78.19042236	     22.90356318	    -17.43581541	    -24.99999983
      2.66000000	      1.73529813	      6.61159189	     -0.08960277	     -0.18354200	      1.00168856	      0.01405174	    -17.55937848	     -7.72369066	    -21.07760542	     -4.69317872	     11.21305481	      1.27703563	     62.59503683	    -54.13476801	     61.69022914	     79.13286625	     29.42502427	     35.34284186	    -21.84146953	     -4.14556136	     -1.68787702	      4.37361943	     -5.18852758	     -2.10029055	     -0.85703830	     46.47931815	    -48.02325020	    -23.06759899	     78.19044960	     22.90347984	    -17.43562638	    -24.99999983
      2.67000000	      1.75730701	      6.60436811	     -0.03164467	     -0.18359623	      1.00173783	      0.01413815	    -17.57414318	     -7.76013867	    -21.10915907	     -4.71790320	     11.18845969	      1.29784666	     62.55064049	    -54.14848812	     61.69219904	     79.15505172	     29.41601638	     35.35663077	    -21.85662418	     -4.14289715	     -1.71431093	      4.37897253	     -5.18114790	     -2.14109772	     -0.86826458	     46.41566927	    -48.01835439	    -23.07960801	     78.19083753	     22.90221545	    -17.43504940	    -24.99999983
      2.68000000	      1.75638540	      6.60447477	     -0.02863257	     -0.18352600	      1.00150841	      0.01416722	    -17.57499162	     -7.76136464	    -21.11032155	     -4.71956485	     11.18835236	      1.29804229	     62.55055322	    -54.14862671	     61.69096375	     79.15474443	     29.41538685	     35.35704334	    -21.85760914	     -4.14285582	     -1.71570264	      4.37913400	     -5.18029140	     -2.14240378	     -0.86895720	     46.41367281	    -48.01808055	    -23.07933591	     78.18969807	     22.90210177	    -17.43513342	    -24.99999983
      2.69000000	      1.75570608	      6.60523698	     -0.02393518	     -0.18345698	      1.00130100	      0.01420589	    -17.57635010	     -7.76370140	    -21.11224243	     -4.72193148	     11.18779181	      1.29825083	     62.54960807	    -54.14905482	     61.68927195	     79.15498538	     29.41452309	     35.35767972	    -21.85896959	     -4.14304536	     -1.71780814	      4.38008856	     -5.17916428	     -2.14509741	     -0.86949730	     46.40992684	    -48.01792378	    -23.07911885	     78.18847750	     22.90197976	    -17.43534050	    -24.99999983
      2.70000000	      1.75482318	      6.60704525	     -0.01749044	     -0.18336028	      1.00105202	      0.01426918	    -17.57798735	     -7.76816638	    -21.11408643	     -4.72344175	     11.18751033	      1.29884069	     62.54791565	    -54.14926148	     61.68738967	     79.15581386	     29.41362376	     35.35837180	    -21.86037283	     -4.14369425	     -1.72217611	      4.38144296	     -5.17916293	     -2.14804009	     -0.87024742	     46.40489180	    -48.01750458	    -23.07908943	     78.18745170	     22.90188979	    -17.43560582	    -24.99999983
      2.71000000	      1.69797604	      6.99525571	     -0.45322149	     -0.18329148	      1.00193338	      0.01428611	    -17.97858071	     -8.48152499	    -21.99428407	     -5.19144912	     10.57620776	      1.75173397	     62.60654682	    -54.04629852	     61.07818889	     78.88647182	     28.57812050	     36.52500586	    -23.54052229	     -3.69087079	     -1.95620538	      3.62024005	     -5.08352765	     -2.43598033	     -0.78919229	     46.01545676	    -47.60017138	    -21.92031424	     77.92763543	     22.60488297	    -18.26235979	    -24.99999983
      2.72000000	      1.69633195	      6.99717681	     -0.44900635	     -0.18319253	      1.00176072	      0.01435557	    -17.97832899	     -8.48250777	    -21.99402501	     -5.19282606	     10.57588265	      1.75210572	     62.60560472	    -54.04507949	     61.07840188	     78.88686341	     28.57799085	     36.52544788	    -23.54068293	     -3.69119463	     -1.95752605	      3.61998992	     -5.08302877	     -2.43725301	     -0.78870669	     46.01396197	    -47.60026446	    -21.92099850	     77.92676879	     22.60500195	    -18.26239511	    -24.99999983
      2.73000000	      1.69340125	      7.00103257	     -0.44260864	     -0.18305930	      1.00156637	      0.01443667	    -17.97830384	     -8.48525366	    -21.99327918	     -5.19362935	     10.57630204	      1.75286040	     62.60427305	    -54.04308100	     61.07810621	     78.88848923	     28.57774575	     36.52602609	    -23.54097269	     -3.69158625	     -1.96092388	      3.62047880	     -5.08302823	     -2.43858809	     -0.78842014	     46.01135190	    -47.59988714	    -21.92159957	     77.92621733	     22.60510797	    -18.26250762	    -24.99999983
      2.74000000	      1.66585583	      7.04400820	     -0.36924533	     -0.18323500	      1.00167004	      0.01433983	    -17.98168695	     -8.50007148	    -22.00459682	     -5.20645249	     10.57156462	      1.75677800	     62.58301626	    -54.03508691	     61.07589228	     78.92279038	     28.57364221	     36.53697428	    -23.54670892	     -3.69713387	     -1.97912027	      3.63292625	     -5.06809896	     -2.45148059	     -0.80117149	     45.98572256	    -47.59806325	    -21.91593834	     77.92332817	     22.60480989	    -18.26773144	    -24.99999983
      2.75000000	      1.66405839	      7.04598109	     -0.36452585	     -0.18307826	      1.00153998	      0.01441608	    -17.98446686	     -8.49981871	    -22.00345129	     -5.20735537	     10.57092867	      1.75832839	     62.58244173	    -54.03455739	     61.07535028	     78.92438244	     28.57333279	     36.53746085	    -23.54709039	     -3.69818800	     -1.98113965	      3.63353358	     -5.06689380	     -2.45201617	     -0.79906253	     45.98487765	    -47.59698567	    -21.91507775	     77.92334003	     22.60471131	    -18.26811154	    -24.99999983
      2.76000000	      1.60804914	      7.15034881	     -0.23708142	     -0.18285450	      1.00146374	      0.01454278	    -18.07608256	     -8.46761403	    -22.18722941	     -5.17022073	     10.53317484	      1.75427960	     62.56418155	    -54.14084655	     61.02645386	     79.09398211	     28.53332189	     36.59732996	    -23.59895779	     -3.75220288	     -1.99733922	      3.72098220	     -5.04531737	     -2.43697698	     -0.82171360	     45.99475407	    -47.62852961	    -21.75578147	     77.91779380	     22.58914245	    -18.32791304	    -24.99999983
      2.77000000	      1.60511322	      7.15439126	     -0.23027036	     -0.18261278	      1.00135578	      0.01462139	    -18.07586834	     -8.47022482	    -22.18527695	     -5.17141164	     10.53567493	      1.75615792	     62.56440423	    -54.13711812	     61.02455072	     79.09674328	     28.53273307	     36.59784974	    -23.59953981	     -3.75239474	     -2.00092112	      3.72071187	     -5.04513536	     -2.43694599	     -0.82061032	     45.99343662	    -47.62628804	    -21.75571235	     77.91908473	     22.58912168	    -18.32832462	    -24.99999983
      2.78000000	      1.56693734	      7.26404743	     -0.20900917	     -0.18263328	      1.00118799	      0.01460301	    -18.14527278	     -8.47282852	    -22.31242075	     -5.17330446	     10.51614022	      1.76034538	     62.56539140	    -54.16003228	     60.94395518	     79.35678040	     28.47021518	     36.66115118	    -23.65940047	     -3.76606796	     -2.02382051	      3.73903061	     -5.02007917	     -2.43529623	     -0.83101983	     46.00382841	    -47.58112158	    -21.63104599	     78.04526713	     22.57833047	    -18.39967571	    -24.99999983
      2.79000000	      1.55214948	      7.29643469	     -0.16703426	     -0.18266753	      1.00121334	      0.01455524	    -18.14721659	     -8.48800349	    -22.30084343	     -5.19208497	     10.53044596	      1.76223537	     62.57076875	    -54.13069588	     60.92437360	     79.38645333	     28.46238885	     36.66542759	    -23.66526031	     -3.76585626	     -2.03426407	      3.73474341	     -5.00979106	     -2.43334655	     -0.82963137	     46.00423446	    -47.56445959	    -21.62343703	     78.05957875	     22.57785718	    -18.40500280	    -24.99999983
